<svg viewBox="0 0 19 19" fill="none" xmlns="http://www.w3.org/2000/svg">
<g clip-path="url(#clip0_914_3706)">
<path d="M15.5 14.75H3.5C2.67157 14.75 2 15.4216 2 16.25C2 17.0784 2.67157 17.75 3.5 17.75H15.5C16.3284 17.75 17 17.0784 17 16.25C17 15.4216 16.3284 14.75 15.5 14.75Z" stroke="white" stroke-width="1.125" stroke-linecap="round" stroke-linejoin="round"/>
<path d="M7.24998 11H4.99998L2.20398 15.5" stroke="white" stroke-width="1.125" stroke-linecap="round" stroke-linejoin="round"/>
<path d="M16.796 15.5L14 11H11.75" stroke="white" stroke-width="1.125" stroke-linecap="round" stroke-linejoin="round"/>
<path d="M9.5 8.75V11.75" stroke="white" stroke-width="1.125" stroke-linecap="round" stroke-linejoin="round"/>
<path d="M6.5 3.5L9.5 5L12.5 3.5" stroke="white" stroke-width="1.125" stroke-linecap="round" stroke-linejoin="round"/>
<path d="M9.5 5V8.75" stroke="white" stroke-width="1.125" stroke-linecap="round" stroke-linejoin="round"/>
<path d="M12.5 3.5L9.5 2L6.5 3.5V7.25L9.5 8.75L12.5 7.25V3.5Z" stroke="white" stroke-width="1.125" stroke-linecap="round" stroke-linejoin="round"/>
</g>
<defs>
<clipPath id="clip0_914_3706">
<rect width="18" height="18" fill="white" transform="translate(0.5 0.5)"/>
</clipPath>
</defs>
</svg>
