<svg width="64" height="64" viewBox="0 0 64 64" fill="none" xmlns="http://www.w3.org/2000/svg">
<path d="M21.69 43H9C8.73478 43 8.48043 42.8946 8.29289 42.7071C8.10536 42.5196 8 42.2652 8 42V14C8 13.7348 8.10536 13.4804 8.29289 13.2929C8.48043 13.1054 8.73478 13 9 13H27.69C26.9189 12.4862 26.2763 11.8019 25.812 11H5C3.93913 11 2.92172 11.4214 2.17157 12.1716C1.42143 12.9217 1 13.9391 1 15V41C1 42.0609 1.42143 43.0783 2.17157 43.8284C2.92172 44.5786 3.93913 45 5 45H19.812C20.2763 44.1981 20.9189 43.5138 21.69 43Z" fill="white"/>
<path d="M50 37.9994V24.5184L46 17.3184V41.9994H47C49.708 41.9994 50 39.1994 50 37.9994Z" fill="white"/>
<path d="M54.3261 8.59159C53.4673 7.55984 52.2868 6.84637 50.9741 6.56559L39.6221 4.13259L38.3651 3.99959H31.1721C30.1568 3.98269 29.1712 4.34165 28.4046 5.00747C27.638 5.6733 27.1445 6.59898 27.0191 7.60659C26.9642 8.16235 27.0263 8.72344 27.2014 9.25374C27.3765 9.78404 27.6607 10.2718 28.0357 10.6856C28.4107 11.0994 28.8682 11.4301 29.3788 11.6564C29.8893 11.8828 30.4416 11.9996 31.0001 11.9996H37.0001L47.0001 14.9996L52.0001 23.9996V37.9996C52.0001 39.5909 51.3679 41.117 50.2427 42.2422C49.1175 43.3675 47.5914 43.9996 46.0001 43.9996H25.1801C24.1797 43.9818 23.207 44.3284 22.4433 44.9747C21.6796 45.6211 21.177 46.5231 21.0291 47.5126C20.9055 48.5226 21.1721 49.5417 21.7744 50.3618C22.3767 51.182 23.2694 51.7413 24.2701 51.9256L37.7941 53.8256C38.5902 53.9385 39.3554 54.2106 40.0441 54.6256L47.5751 59.1436C48.5075 59.7034 49.5745 59.9993 50.6621 59.9996H63.0001V18.9996L54.3261 8.59159Z" fill="white"/>
</svg>
