<svg width="63" height="61" viewBox="0 0 63 61" fill="none" xmlns="http://www.w3.org/2000/svg">
<path d="M29.8252 17.3037C29.9922 16.2119 29.2432 15.1909 28.1514 15.0234C27.0552 14.8608 26.0391 15.6064 25.8711 16.6973C25.0449 22.0879 20.4731 26 15 26C8.93457 26 4 21.0654 4 15C4 8.93457 8.93457 4 15 4C17.2403 4 19.3771 4.68677 21.1775 5.91479L18.5898 7.90771C18.2695 8.15478 18.1294 8.57031 18.2349 8.96093C18.3403 9.35107 18.6704 9.63964 19.0713 9.69189L26.771 10.6919C26.814 10.6973 26.8569 10.7002 26.8999 10.7002C27.1196 10.7002 27.3345 10.6279 27.5103 10.4927C27.7202 10.3306 27.8574 10.0918 27.8916 9.8291L28.8916 2.1289C28.9439 1.72753 28.749 1.33447 28.3985 1.13329C28.0474 0.93114 27.6108 0.96093 27.2896 1.20751L24.4652 3.38268C21.8165 1.2168 18.4974 0 15 0C6.729 0 0 6.729 0 15C0 23.271 6.729 30 15 30C22.4629 30 28.6973 24.6602 29.8252 17.3037Z" fill="white"/>
<path d="M55.9503 35.3936C54.8675 33.1476 52.6591 32.1162 49.2195 32.5486L49.2143 32.5588C47.949 31.1454 45.9721 30.3337 43.0127 30.6058L43.0076 30.615C42.1893 25.9656 40.6656 21.6552 38.9369 18.8765C37.9496 17.2893 35.9306 16.5585 34.2131 17.2964C32.0159 18.2402 31.2652 20.8627 32.4915 22.7952C34.5365 26.018 35.6192 33.3937 35.1369 39.3731C34.9621 41.5389 32.2649 42.4385 30.7876 40.8451L28.396 38.2656C26.7294 36.4974 23.9449 36.4151 22.1768 38.0817C20.4087 39.7484 20.3263 42.5328 21.993 44.3009L34.8475 60.9998H57.4738L61.5829 45.3848C62.7836 40.8228 61.884 35.8749 55.9503 35.3936Z" fill="white"/>
</svg>
