<svg width="204" height="89" viewBox="0 0 204 89" fill="none" xmlns="http://www.w3.org/2000/svg">
<path d="M1.39236 88L30.7182 1H184.191L202.764 88H1.39236Z" stroke="white" stroke-width="2"/>
<path d="M100.212 25.6949C99.7558 26.0055 99.1337 25.8872 98.823 25.4307L96.5728 22.1236C96.2621 21.6671 96.3804 21.045 96.837 20.7343C97.2936 20.4236 97.9157 20.5419 98.2263 20.9985L100.477 24.3055C100.787 24.7621 100.669 25.3842 100.212 25.6949Z" fill="white"/>
<path d="M107.706 24.1381C107.494 24.282 107.228 24.3452 106.957 24.2936C106.414 24.1904 106.058 23.6672 106.161 23.1246L106.908 19.1954C107.011 18.6527 107.535 18.2967 108.077 18.3999C108.62 18.5031 108.976 19.0263 108.873 19.569L108.126 23.4981C108.074 23.7695 107.917 23.9942 107.706 24.1381Z" fill="white"/>
<path d="M117.412 26.0868L114.105 28.3371C113.649 28.6477 113.027 28.5294 112.716 28.0729C112.405 27.6163 112.524 26.9942 112.98 26.6835L116.287 24.4333C116.744 24.1226 117.366 24.2409 117.676 24.6975C117.987 25.1541 117.869 25.7761 117.412 26.0868Z" fill="white"/>
<path d="M96.0138 32.094C95.8023 32.2379 95.5358 32.3011 95.2645 32.2495L91.3353 31.5023C90.7926 31.3991 90.4366 30.876 90.5398 30.3333C90.643 29.7906 91.1662 29.4346 91.7089 29.5378L95.6381 30.285C96.1808 30.3882 96.5368 30.9113 96.4336 31.454C96.382 31.7254 96.2254 31.9501 96.0138 32.094Z" fill="white"/>
<path d="M97.5704 39.5878L94.2634 41.838C93.8068 42.1487 93.1848 42.0304 92.8741 41.5738C92.5634 41.1173 92.6817 40.4952 93.1383 40.1845L96.4453 37.9343C96.9019 37.6236 97.524 37.7419 97.8346 38.1985C98.1453 38.6551 98.027 39.2771 97.5704 39.5878Z" fill="white"/>
<path d="M131.133 34.9008C129.688 35.9848 129.584 37.4228 129.683 38.2813C129.704 38.4663 129.481 38.5603 129.348 38.4299C128.21 37.3119 126.428 36.8973 125.1 37.8007C123.309 39.0198 123.332 40.7457 123.547 41.7608C123.588 41.9532 123.351 42.0773 123.209 41.9406C122.295 41.0574 120.459 39.7382 118.58 41.0168C117.108 42.0183 116.975 43.5113 117.094 44.5062C117.119 44.7148 116.855 44.8208 116.737 44.6471C114.971 42.0515 109.819 34.4799 107.583 31.1946C106.517 29.6277 104.391 29.0252 102.77 30.0079C101.042 31.056 100.564 33.3227 101.687 34.9723L115.47 55.2279C115.78 55.6845 115.662 56.3065 115.205 56.6172C114.749 56.9279 114.127 56.8096 113.816 56.353L111.566 53.046L109.912 54.1711C108.543 55.1032 108.188 56.9692 109.12 58.339L113.058 64.1263C115.683 67.9845 124.564 68.5938 126.721 71.763L146.563 58.2616L135.706 36.1022C134.867 34.3909 132.658 33.7574 131.133 34.9008Z" fill="white"/>
</svg>
