<svg width="86" height="87" viewBox="0 0 86 87" fill="none" xmlns="http://www.w3.org/2000/svg">
<g clip-path="url(#clip0_723_935)">
<path d="M58.0542 37.4921C56.4788 38.3769 56.187 39.7887 56.1721 40.6527C56.1688 40.8389 55.9349 40.9028 55.8204 40.756C54.8392 39.4982 53.1274 38.8531 51.6925 39.5742C49.7562 40.5473 49.5527 42.2613 49.6321 43.2958C49.6472 43.4919 49.396 43.5838 49.2737 43.4297C48.483 42.4339 46.8365 40.885 44.8057 41.9056C43.2151 42.705 42.8868 44.1676 42.8745 45.1696C42.8719 45.3796 42.5961 45.45 42.5018 45.2623C41.092 42.4571 36.9795 34.2742 35.1951 30.7237C34.3441 29.0303 32.3152 28.1536 30.5796 28.9148C28.7286 29.7268 27.9575 31.911 28.8536 33.6939L39.8552 55.5848C40.1032 56.0783 39.9042 56.6794 39.4108 56.9274C38.9173 57.1754 38.3162 56.9764 38.0682 56.4829L36.272 52.9089L34.485 53.807C33.0046 54.551 32.4076 56.3542 33.1516 57.8347L36.295 64.0892C38.3905 68.2589 47.1148 70.0298 48.8362 73.455L70.2804 62.6778L62.4291 39.284C61.8227 37.4773 59.7158 36.559 58.0542 37.4921Z" fill="white"/>
<path d="M31.2087 42.8338L27.0665 34.5918C25.7047 31.8821 26.8017 28.5694 29.5115 27.2075C29.5983 27.1639 29.6862 27.1225 29.7763 27.0832C32.4539 25.9086 35.619 27.1131 36.9822 29.8255L41.0372 37.8942C43.9032 34.135 44.4274 29.0513 42.2516 24.722C39.1565 18.5634 31.6282 16.0711 25.4696 19.1662C19.3111 22.2613 16.8188 29.7896 19.9139 35.9481C22.0893 40.2767 26.4819 42.89 31.2087 42.8338Z" fill="white"/>
</g>
<defs>
<clipPath id="clip0_723_935">
<rect width="64" height="64" fill="white" transform="translate(0 29.7275) rotate(-26.6826)"/>
</clipPath>
</defs>
</svg>
