<?xml version="1.0" encoding="utf-8"?>
<!-- Generator: Adobe Illustrator 24.2.3, SVG Export Plug-In . SVG Version: 6.00 Build 0)  -->
<svg version="1.1" id="Warstwa_1" xmlns="http://www.w3.org/2000/svg" xmlns:xlink="http://www.w3.org/1999/xlink" x="0px" y="0px"
	 viewBox="0 0 68.7 80" style="enable-background:new 0 0 68.7 80;" xml:space="preserve">
<style type="text/css">
	.st0{fill:#FFFFFF;}
</style>
<g id="Thin-M" transform="matrix(1 0 0 1 791.758 1126)">
	<path class="st0" d="M-748.3-1103.1c0.3,0,0.5-0.1,0.5-0.5c0.3-2,0.6-3.6,0.9-4.7c0.3-1.1,0.7-1.9,1.2-2.5c0.5-0.5,1.4-1,2.6-1.2
		c1.1-0.3,2.8-0.7,4.8-1.1c0.3-0.1,0.5-0.2,0.5-0.5s-0.1-0.5-0.5-0.5c-2-0.4-3.7-0.7-4.8-1.1c-1.1-0.3-2-0.7-2.6-1.2s-1-1.4-1.2-2.5
		c-0.3-1.1-0.6-2.6-0.9-4.7c-0.1-0.3-0.2-0.5-0.5-0.5c-0.3,0-0.5,0.1-0.5,0.5c-0.3,2-0.6,3.6-0.9,4.7c-0.3,1.1-0.7,1.9-1.2,2.5
		c-0.5,0.5-1.4,1-2.6,1.2c-1.1,0.3-2.8,0.7-4.8,1.1c-0.3,0.1-0.5,0.3-0.5,0.5s0.1,0.5,0.5,0.5c2.1,0.4,3.7,0.8,4.8,1.1
		c1.1,0.3,2,0.7,2.6,1.2c0.5,0.5,1,1.4,1.2,2.5c0.3,1.1,0.6,2.7,0.9,4.7C-748.8-1103.3-748.6-1103.1-748.3-1103.1z M-769.4-1111.2
		c0.2,0,0.3-0.1,0.4-0.3c0.3-1.8,0.5-3.1,0.9-3.9c0.3-0.9,0.9-1.4,1.7-1.8c0.9-0.3,2.2-0.7,4.1-1c0.3-0.1,0.4-0.1,0.4-0.3
		c0-0.2-0.1-0.3-0.4-0.4c-1.9-0.4-3.2-0.8-4-1.1c-0.8-0.3-1.3-0.9-1.6-1.8c-0.3-0.8-0.7-2.1-1.1-3.8c-0.1-0.2-0.2-0.3-0.4-0.3
		c-0.2,0-0.3,0.1-0.3,0.3c-0.5,1.7-0.8,3-1.1,3.8s-0.8,1.4-1.6,1.8c-0.8,0.3-2.1,0.7-4,1.1c-0.3,0.1-0.4,0.2-0.4,0.4
		c0,0.2,0.1,0.3,0.4,0.3c1.9,0.4,3.3,0.8,4.1,1.1c0.9,0.3,1.4,0.9,1.7,1.7c0.3,0.8,0.6,2.1,0.9,3.9
		C-769.7-1111.3-769.6-1111.2-769.4-1111.2z M-783.3-1046c0.2,0,0.3-0.1,0.4-0.3c0.2-1.5,0.5-2.8,0.7-3.7s0.6-1.6,1.1-2.1
		c0.5-0.5,1.2-0.9,2.1-1.1c0.9-0.3,2.2-0.5,3.9-0.8c0.3-0.1,0.4-0.2,0.4-0.5c0-0.2-0.1-0.3-0.4-0.4c-1.6-0.3-2.9-0.7-3.7-0.9
		c-0.9-0.3-1.5-0.7-2-1.2c-0.5-0.5-0.8-1.2-1-2c-0.2-0.9-0.5-2-0.9-3.5c-0.1-0.2-0.2-0.3-0.4-0.3s-0.3,0.1-0.4,0.3
		c-0.4,1.5-0.7,2.7-0.9,3.5c-0.3,0.9-0.5,1.5-1,2c-0.4,0.5-1.1,0.9-2,1.2c-0.9,0.3-2.2,0.6-3.8,0.9c-0.3,0.1-0.4,0.1-0.4,0.4
		s0.1,0.4,0.4,0.5c1.6,0.3,3,0.7,3.9,0.9c0.9,0.3,1.6,0.7,2,1.1c0.5,0.5,0.8,1.1,1,2c0.2,0.9,0.5,2.1,0.7,3.6
		C-783.7-1046.1-783.5-1046-783.3-1046z M-737.4-1054c3.6-3.6,5.7-7.6,6.4-12.1c0.7-4.5-0.3-9.1-2.6-14.1l-7.8-16.3
		c-0.4-0.8-0.9-1.5-1.4-2c-1-1-2.1-1.4-3.4-1.4c-1.3,0-2.4,0.5-3.4,1.5c-0.7,0.7-1.1,1.5-1.2,2.6c-0.1,1.1,0,2.1,0.5,3.4l3.8,8.9
		c0.1,0.2,0.1,0.3,0,0.4c-0.1,0.1-0.3,0.1-0.4-0.1l-20.8-20.8c-1.2-1.2-2.4-1.8-3.7-1.8c-1.3,0-2.4,0.5-3.4,1.4
		c-0.5,0.5-0.8,1-1.1,1.6c-0.3,0.6-0.3,1.2-0.3,1.8c-1.1-1.1-2.4-1.6-3.7-1.6c-1.3-0.1-2.5,0.4-3.5,1.4c-1.1,1.1-1.5,2.2-1.4,3.6
		c0.1,1.4,0.6,2.6,1.6,3.7c-1.2-0.1-2.4,0.3-3.4,1.3c-1,1-1.4,2.1-1.4,3.4c0,1.3,0.6,2.5,1.8,3.7l3.1,3.2c-0.7-0.1-1.3,0-1.9,0.3
		s-1.1,0.7-1.6,1.1c-1,1-1.4,2.1-1.4,3.4s0.7,2.5,1.8,3.7l18.9,18.9c3.5,3.5,7,5.7,10.6,6.7c3.5,1.1,7,1,10.4,0
		C-743.2-1049.3-740.1-1051.2-737.4-1054z M-738.9-1055.5c-2.5,2.5-5.3,4.2-8.3,5.1s-6.1,0.9-9.3-0.1c-3.2-1-6.4-3-9.5-6.2
		l-18.8-18.7c-0.7-0.7-1.1-1.4-1.2-2.2c-0.1-0.8,0.2-1.5,0.9-2.2s1.4-0.9,2.2-0.9s1.6,0.4,2.3,1.1l11.2,11.2
		c0.3,0.3,0.7,0.5,0.9,0.5s0.5-0.1,0.8-0.3c0.2-0.2,0.3-0.5,0.3-0.7c0-0.3-0.1-0.7-0.5-0.9l-17-17c-0.7-0.7-1.1-1.4-1.2-2.2
		s0.2-1.5,0.9-2.2s1.4-1,2.2-0.9c0.9,0,1.6,0.4,2.3,1.1l15.7,15.7c0.3,0.3,0.7,0.5,0.9,0.5c0.3,0,0.5-0.1,0.7-0.3
		c0.2-0.2,0.3-0.5,0.3-0.7c0-0.3-0.1-0.6-0.5-0.9l-18.2-18.3c-0.7-0.7-1.1-1.5-1.1-2.4c-0.1-0.9,0.2-1.6,0.9-2.3
		c0.6-0.6,1.3-0.9,2.2-0.8c0.9,0.1,1.6,0.5,2.3,1.2l18.3,18.4c0.3,0.3,0.5,0.4,0.8,0.5c0.3,0.1,0.6-0.1,0.9-0.3
		c0.3-0.3,0.3-0.5,0.3-0.9c-0.1-0.3-0.2-0.6-0.4-0.9l-15.8-15.8c-0.7-0.7-1.1-1.5-1.1-2.3c-0.1-0.8,0.3-1.6,0.9-2.2s1.4-0.9,2.2-0.9
		c0.8,0.1,1.5,0.5,2.2,1.2l21.8,21.8c0.5,0.4,0.9,0.7,1.4,0.6c0.5,0,0.9-0.2,1.3-0.6c0.3-0.3,0.5-0.7,0.6-1.1s0-0.9-0.2-1.4
		l-4.2-10.1c-0.4-1-0.5-1.8-0.3-2.6c0.2-0.7,0.7-1.3,1.5-1.6c0.8-0.4,1.5-0.4,2.2,0c0.7,0.4,1.2,1,1.7,2l7.9,16.4
		c2.2,4.5,2.9,8.7,2.3,12.8C-733.8-1062.4-735.7-1058.7-738.9-1055.5z M-767.2-1107.3c-0.5,0.5-0.9,1-1.1,1.6
		c-0.3,0.6-0.3,1.2-0.3,1.9l2.8,2.6c-0.7-0.7-1.1-1.5-1.1-2.3s0.3-1.6,0.9-2.2c0.7-0.7,1.3-0.9,2.1-0.9c0.8,0.1,1.5,0.5,2.2,1.2
		l10.9,10.9l0.8-2.3l-10.2-10.2c-1.2-1.2-2.4-1.8-3.7-1.8C-765-1108.7-766.1-1108.3-767.2-1107.3z M-729.6-1056.8
		c3.6-3.6,5.8-7.6,6.4-12.1c0.6-4.5-0.3-9.1-2.6-14.1l-7.8-16.2c-0.5-1.1-1.2-2-2.2-2.5c-0.9-0.5-1.8-0.9-2.8-0.9
		c-0.9,0-1.7,0.2-2.4,0.6c-0.7,0.4-1.4,0.9-1.8,1.6c-0.5,0.7-0.7,1.6-0.7,2.6c0,0.2,0,0.4,0.1,0.7c0.1,0.2,0.1,0.5,0.1,0.7l2.2,0.5
		c-0.3-0.6-0.4-1.1-0.4-1.6c0-0.8,0.3-1.5,0.8-2c0.5-0.5,1.2-0.8,2.2-0.8c1.3,0,2.3,0.7,3,2l7.8,16.3c2.2,4.5,2.9,8.7,2.3,12.8
		c-0.6,4.1-2.5,7.7-5.7,10.9c-3,3-6.2,4.8-9.7,5.5l-3,2.5c2.6,0,5.1-0.6,7.5-1.7C-734-1053.2-731.7-1054.8-729.6-1056.8z"/>
</g>
</svg>
