<svg width="62" height="63" viewBox="0 0 62 63" fill="none" xmlns="http://www.w3.org/2000/svg">
<path d="M52.318 28.9862L35.918 30.9862L31.768 17.6042C31.4422 16.6052 30.7363 15.7746 29.8029 15.2918C28.8696 14.8091 27.7837 14.713 26.7801 15.0243C25.7765 15.3357 24.9357 16.0294 24.4394 16.9557C23.9432 17.8819 23.8313 18.9662 24.128 19.9742L31.834 44.8042L29.924 45.4042L28.146 39.6742L26.234 40.2742C25.2223 40.5889 24.3767 41.2921 23.8829 42.2295C23.3891 43.1669 23.2874 44.2619 23.6 45.2742L25.316 50.8042C26.1239 53.4067 27.7934 55.6568 30.05 57.1842L37.168 62.0042L62 54.2982L58.978 34.0562C58.7472 32.5101 57.922 31.115 56.6781 30.1681C55.4342 29.2212 53.8699 28.7971 52.318 28.9862Z" fill="white"/>
<path d="M0.683594 17.1825L8.02159 0.352539L12.2776 7.37254C17.9224 5.15163 23.9336 4.00856 29.9996 4.00254C38.8375 3.99536 47.5052 6.43327 55.0436 11.0465C55.2676 11.1836 55.4625 11.3635 55.617 11.5759C55.7715 11.7883 55.8827 12.0291 55.9441 12.2844C56.0056 12.5398 56.0162 12.8048 55.9753 13.0642C55.9343 13.3237 55.8427 13.5725 55.7056 13.7965C55.5685 14.0206 55.3886 14.2154 55.1762 14.3699C54.9638 14.5244 54.7231 14.6356 54.4677 14.6971C53.952 14.8212 53.4081 14.7354 52.9556 14.4585C46.0458 10.2298 38.1007 7.99532 29.9996 8.00254C24.6668 8.01049 19.3788 8.97651 14.3876 10.8545L18.9996 18.4645L0.683594 17.1825Z" fill="white"/>
</svg>
