<svg viewBox="0 0 24 24" fill="none" xmlns="http://www.w3.org/2000/svg">
<path d="M12 16C11.7663 16.0005 11.5399 15.9191 11.36 15.77L5.36 10.77C5.15578 10.6003 5.02736 10.3564 5.00298 10.0919C4.9786 9.8275 5.06026 9.56422 5.23 9.36C5.39974 9.15578 5.64365 9.02736 5.90808 9.00298C6.1725 8.9786 6.43578 9.06026 6.64 9.23L12 13.71L17.36 9.39C17.4623 9.30694 17.58 9.2449 17.7063 9.20747C17.8327 9.17004 17.9652 9.15795 18.0962 9.17189C18.2272 9.18582 18.3542 9.22552 18.4698 9.2887C18.5855 9.35187 18.6875 9.43727 18.77 9.54C18.8616 9.64282 18.9309 9.76345 18.9737 9.89432C19.0165 10.0252 19.0318 10.1635 19.0187 10.3006C19.0055 10.4376 18.9642 10.5705 18.8974 10.6909C18.8305 10.8112 18.7395 10.9165 18.63 11L12.63 15.83C12.4449 15.9555 12.2231 16.0154 12 16V16Z" fill="#808080"/>
</svg>
