<svg viewBox="0 0 12 12" fill="none" xmlns="http://www.w3.org/2000/svg">
<path d="M6 5.68762C5.96074 5.68762 5.92149 5.67883 5.88525 5.66123L0.668673 3.12594C0.578216 3.08209 0.520844 2.99032 0.520844 2.88975C0.520844 2.78919 0.578216 2.69755 0.668673 2.65357L5.88525 0.118406C5.95772 0.0830899 6.04227 0.0830899 6.11474 0.118406L11.3313 2.65357C11.4216 2.69742 11.4792 2.78919 11.4792 2.88975C11.4792 2.99032 11.4216 3.08196 11.3313 3.12594L6.11474 5.6611C6.07851 5.67883 6.03925 5.68762 6 5.68762ZM1.38406 2.88975L6 5.13306L10.6159 2.88975L6 0.646576L1.38406 2.88975Z" fill="white"/>
<path d="M6 11.9079C5.96074 11.9079 5.92149 11.8991 5.88525 11.8815L0.668673 9.34624C0.578216 9.30226 0.520844 9.21062 0.520844 9.11005V2.88978C0.520844 2.79933 0.567451 2.71517 0.644122 2.66725C0.720926 2.61933 0.816766 2.61395 0.898164 2.6536L6 5.13309L11.1018 2.6536C11.183 2.61421 11.2792 2.6192 11.3559 2.66725C11.4327 2.7153 11.4792 2.79933 11.4792 2.88978V9.11005C11.4792 9.21062 11.4216 9.30226 11.3313 9.34624L6.11474 11.8815C6.07851 11.8991 6.03925 11.9079 6 11.9079ZM1.04599 8.94581L6 11.3534L10.954 8.94568V3.30938L6.11474 5.66126C6.04227 5.69658 5.95772 5.69658 5.88525 5.66126L1.04599 3.30938V8.94581Z" fill="white"/>
<path d="M6 11.9079C5.85506 11.9079 5.73743 11.7903 5.73743 11.6453V5.42505C5.73743 5.28011 5.85506 5.16248 6 5.16248C6.14495 5.16248 6.26258 5.28011 6.26258 5.42505V11.6453C6.26258 11.7903 6.14495 11.9079 6 11.9079Z" fill="white"/>
</svg>
