<svg viewBox="0 0 24 24" fill="none" xmlns="http://www.w3.org/2000/svg">
<path d="M3 11L7.5 7L10.6713 4.18109C11.429 3.50752 12.571 3.50752 13.3287 4.18109L16.5 7L21 11" fill="#0F0F0F"/>
<path d="M3 11L7.5 7L10.6713 4.18109C11.429 3.50752 12.571 3.50752 13.3287 4.18109L16.5 7L21 11" stroke="#0F0F0F" stroke-width="1.8" stroke-linecap="round" stroke-linejoin="round"/>
<path fill-rule="evenodd" clip-rule="evenodd" d="M19 17V10H5V17C5 18.8856 5 19.8284 5.58579 20.4142C6.17157 21 7.11438 21 9 21V17C9 15.8954 10.5919 15 12 15C13.4081 15 15 15.8954 15 17V21C16.8856 21 17.8284 21 18.4142 20.4142C19 19.8284 19 18.8856 19 17Z" fill="#0F0F0F"/>
<path d="M19 10H20C20 9.44772 19.5523 9 19 9V10ZM5 10V9C4.44772 9 4 9.44772 4 10H5ZM5.58579 20.4142L6.29291 19.7071L6.2929 19.7071L5.58579 20.4142ZM9 21V22C9.55228 22 10 21.5523 10 21H9ZM15 21H14C14 21.5523 14.4477 22 15 22V21ZM18 10V17H20V10H18ZM5 11H19V9H5V11ZM6 17V10H4V17H6ZM6.2929 19.7071C6.21677 19.631 6.12262 19.495 6.06431 19.0613C6.00212 18.5988 6 17.9711 6 17H4C4 17.9145 3.99788 18.701 4.08214 19.3278C4.17027 19.9833 4.36902 20.6116 4.87868 21.1213L6.2929 19.7071ZM9 20C8.02892 20 7.40121 19.9979 6.93871 19.9357C6.50497 19.8774 6.36903 19.7832 6.29291 19.7071L4.87867 21.1213C5.38833 21.631 6.01668 21.8297 6.6722 21.9179C7.29896 22.0021 8.08546 22 9 22V20ZM10 21V17H8V21H10ZM10 17C10 16.95 10.0554 16.7154 10.5053 16.4317C10.9224 16.1687 11.4879 16 12 16V14C11.104 14 10.1696 14.279 9.43862 14.7399C8.74058 15.18 8 15.9454 8 17H10ZM12 16C12.5121 16 13.0776 16.1687 13.4947 16.4317C13.9446 16.7154 14 16.95 14 17H16C16 15.9454 15.2594 15.18 14.5614 14.7399C13.8304 14.279 12.896 14 12 14V16ZM14 17V21H16V17H14ZM17.7071 19.7071C17.631 19.7832 17.495 19.8774 17.0613 19.9357C16.5988 19.9979 15.9711 20 15 20V22C15.9145 22 16.701 22.0021 17.3278 21.9179C17.9833 21.8297 18.6116 21.631 19.1213 21.1213L17.7071 19.7071ZM18 17C18 17.9711 17.9979 18.5988 17.9357 19.0613C17.8774 19.495 17.7832 19.631 17.7071 19.7071L19.1213 21.1213C19.631 20.6116 19.8297 19.9833 19.9179 19.3278C20.0021 18.701 20 17.9145 20 17H18Z" fill="#0F0F0F"/>
</svg>
