<svg viewBox="0 0 14 14" fill="none" xmlns="http://www.w3.org/2000/svg">
<path d="M2.68369 13.8951C2.92102 14.0763 3.20778 14.0194 3.55882 13.7502L7 11.1099L10.4412 13.7502C10.7922 14.0194 11.0839 14.0763 11.3163 13.8951C11.5437 13.7139 11.5981 13.4137 11.4597 12.9788L10.1099 8.74399L13.5758 6.13477C13.9269 5.87074 14.0653 5.59636 13.9714 5.30645C13.8824 5.02689 13.6253 4.87676 13.1803 4.88193L8.92825 4.90782L7.62792 0.657482C7.49442 0.217435 7.28676 0 7 0C6.71323 0 6.50558 0.217435 6.37208 0.657482L5.07175 4.90782L0.819723 4.88193C0.379687 4.87676 0.117643 5.02689 0.0286473 5.30645C-0.0652929 5.59636 0.0731453 5.87074 0.424185 6.13477L3.89008 8.74399L2.54526 12.9788C2.40187 13.4137 2.45626 13.7139 2.68369 13.8951Z" fill="#F2D43D"/>
</svg>
