<?xml version="1.0" encoding="utf-8"?>
<svg viewBox="0 0 14 14" fill="none" xmlns="http://www.w3.org/2000/svg">
  <defs>
    <linearGradient id="paint0_linear_301_947" x1="0.4375" y1="5.6875" x2="13.5625" y2="5.6875" gradientUnits="userSpaceOnUse">
      <stop stop-color="#F1D02D"/>
      <stop offset="0.4999" stop-color="#F1D02D"/>
      <stop offset="0.5" stop-color="#F1D02D" stop-opacity="0"/>
    </linearGradient>
  </defs>
  <path d="M 7.304 10.713 L 7 10.48 L 6.696 10.713 L 3.255 13.353 C 3.11 13.464 3.026 13.493 2.993 13.499 C 2.992 13.499 2.974 13.481 2.969 13.454 C 2.962 13.407 2.963 13.308 3.02 13.135 L 3.022 13.13 L 4.367 8.895 L 4.474 8.558 L 4.191 8.345 L 0.725 5.735 C 0.585 5.63 0.529 5.553 0.51 5.512 C 0.501 5.495 0.5 5.486 0.5 5.484 C 0.5 5.482 0.499 5.475 0.504 5.461 L 0.505 5.458 C 0.509 5.445 0.513 5.44 0.514 5.44 C 0.514 5.439 0.518 5.434 0.532 5.426 C 0.564 5.409 0.646 5.38 0.814 5.382 L 0.817 5.382 L 5.069 5.408 L 5.441 5.41 L 5.55 5.054 L 6.85 0.804 L 6.851 0.803 C 6.905 0.622 6.961 0.54 6.99 0.509 C 6.994 0.505 7.006 0.505 7.01 0.509 C 7.039 0.54 7.095 0.622 7.149 0.803 L 7.15 0.804 L 8.45 5.054 L 8.559 5.41 L 8.931 5.408 L 13.183 5.382 L 13.186 5.382 C 13.357 5.38 13.439 5.409 13.469 5.426 C 13.482 5.433 13.485 5.437 13.486 5.438 C 13.486 5.439 13.49 5.443 13.495 5.458 L 13.496 5.461 C 13.501 5.475 13.5 5.482 13.5 5.484 C 13.5 5.486 13.499 5.495 13.49 5.512 C 13.471 5.553 13.415 5.63 13.275 5.735 L 9.809 8.345 L 9.526 8.558 L 9.634 8.896 L 10.983 13.131 C 11.039 13.304 11.04 13.404 11.032 13.452 C 11.027 13.48 11.021 13.49 11.011 13.499 C 11.01 13.499 11.009 13.499 11.009 13.499 C 10.974 13.493 10.889 13.463 10.745 13.353 L 7.304 10.713 Z" fill="url(#paint0_linear_301_947)" stroke="#F2D43D"/>
</svg>