<svg viewBox="0 0 24 24" fill="none" xmlns="http://www.w3.org/2000/svg">
<path fill-rule="evenodd" clip-rule="evenodd" d="M6.29691 9C6.12197 9.07785 6 9.2532 6 9.45703V11V11.5V17C6 17.9711 6.00213 18.5988 6.06431 19.0613C6.12263 19.495 6.21677 19.631 6.29291 19.7071L6.29291 19.7071C6.36903 19.7832 6.50498 19.8774 6.93871 19.9357C7.21873 19.9733 7.55932 19.989 8 19.9955V17C8 15.9454 8.74058 15.18 9.43862 14.7399C10.1696 14.279 11.104 14 12 14C12.896 14 13.8304 14.279 14.5614 14.7399C15.2594 15.18 16 15.9454 16 17V19.9955C16.4407 19.989 16.7813 19.9733 17.0613 19.9357C17.495 19.8774 17.631 19.7832 17.7071 19.7071C17.7832 19.631 17.8774 19.495 17.9357 19.0613C17.9979 18.5988 18 17.9711 18 17V11.5V11V9.45703C18 9.2532 17.878 9.07785 17.7031 9H19C19.5523 9 20 9.44772 20 10V17L20 17.0658C20.0001 17.9523 20.0001 18.7161 19.9179 19.3278C19.8297 19.9833 19.631 20.6116 19.1213 21.1213C18.6116 21.631 17.9833 21.8297 17.3278 21.9179C16.7161 22.0001 15.9523 22.0001 15.0658 22L15 22C14.4477 22 14 21.5523 14 21V17C14 16.95 13.9446 16.7154 13.4947 16.4317C13.0776 16.1687 12.5121 16 12 16C11.4879 16 10.9224 16.1687 10.5053 16.4317C10.0554 16.7154 10 16.95 10 17V21C10 21.5523 9.55229 22 9 22L8.93417 22C8.04769 22.0001 7.28387 22.0001 6.67221 21.9179C6.01669 21.8297 5.38834 21.631 4.87868 21.1213C4.36903 20.6116 4.17028 19.9833 4.08215 19.3278C3.99991 18.7161 3.99995 17.9523 4 17.0658L4 17V10C4 9.44772 4.44772 9 5 9H6.29691Z" fill="#C4C4C4"/>
<path d="M3 11L7.5 7L10.6713 4.18109C11.429 3.50752 12.571 3.50752 13.3287 4.18109L16.5 7L21 11" stroke="#C4C4C4" stroke-width="1.5" stroke-linecap="round" stroke-linejoin="round"/>
</svg>
