<?xml version="1.0" encoding="utf-8"?>
<svg viewBox="0 0 24 24" fill="none" xmlns="http://www.w3.org/2000/svg">
  <path d="M17 8C17 10.7614 14.7614 13 12 13C9.23858 13 7 10.7614 7 8C7 5.23858 9.23858 3 12 3C14.7614 3 17 5.23858 17 8Z" stroke="#C4C4C4" stroke-width="1.5" stroke-linecap="round" stroke-linejoin="round"/>
  <path d="M 4.573 21.512 C 4.962 20.264 5.473 19.776 6.542 19.13 C 7.655 18.458 9.362 18 12 18 L 12.011 16.509 C 10.707 16.509 9.644 16.629 8.753 16.786 C 7.634 16.984 6.761 17.247 5.785 17.836 C 4.913 18.363 4.417 18.865 4.019 19.394 C 3.597 19.954 3.291 20.552 2.998 21.492 L 4.573 21.512 Z M 12 18 C 14.639 18 16.345 18.458 17.458 19.13 C 18.527 19.776 19.064 20.255 19.453 21.503 L 20.991 21.475 C 20.738 20.661 20.455 20.089 20.08 19.567 C 19.613 18.917 19.029 18.367 18.032 17.765 C 17.17 17.245 16.364 16.997 15.463 16.805 C 14.531 16.608 13.499 16.51 12.003 16.51 L 12 18 Z" fill="#C4C4C4" style=""/>
  <path d="M 3 21.5 C 3.957 18.424 6.42 16.5 12 16.5 C 17.58 16.5 20.043 18.424 21 21.5"/>
</svg>