<svg viewBox="0 0 16 16" fill="none" xmlns="http://www.w3.org/2000/svg">
<path d="M3.68369 14.8951C3.92102 15.0763 4.20778 15.0194 4.55882 14.7502L8 12.1099L11.4412 14.7502C11.7922 15.0194 12.0839 15.0763 12.3163 14.8951C12.5437 14.7139 12.5981 14.4137 12.4597 13.9788L11.1099 9.74399L14.5758 7.13477C14.9269 6.87074 15.0653 6.59636 14.9714 6.30645C14.8824 6.02689 14.6253 5.87676 14.1803 5.88193L9.92825 5.90782L8.62792 1.65748C8.49442 1.21743 8.28676 1 8 1C7.71323 1 7.50558 1.21743 7.37208 1.65748L6.07175 5.90782L1.81972 5.88193C1.37969 5.87676 1.11764 6.02689 1.02865 6.30645C0.934707 6.59636 1.07315 6.87074 1.42419 7.13477L4.89008 9.74399L3.54526 13.9788C3.40187 14.4137 3.45626 14.7139 3.68369 14.8951Z" stroke="#F2D43D"/>
</svg>
