<svg
    viewBox="0 0 24 24"
    fill="none"
    xmlns="http://www.w3.org/2000/svg"
>
<path d="M4.50929 10.4343C4.74321 8.79689 4.86017 7.97818 5.4241 7.48909C5.98803 7 6.81505 7 8.46909 7H8.99991H14.9999H15.5307C17.1848 7 18.0118 7 18.5757 7.48909C19.1396 7.97818 19.2566 8.79689 19.4905 10.4343L20.3477 16.4343C20.6511 18.5586 20.8029 19.6208 20.2048 20.3104C19.6067 21 18.5338 21 16.3879 21H15.9999H7.99991H7.61195C5.46605 21 4.39311 21 3.79502 20.3104C3.19694 19.6208 3.34868 18.5586 3.65215 16.4343L4.50929 10.4343Z" stroke="#808080" stroke-width="1.5" stroke-linecap="round" stroke-linejoin="round"/>
<path d="M9 11V5C9 3.89543 9.89543 3 11 3H13C14.1046 3 15 3.89543 15 5V11" stroke="#808080" stroke-width="1.5" stroke-linecap="round" stroke-linejoin="round"/>
</svg>
